<?xml version="1.0" encoding="iso-8859-1"?>
<!-- Uploaded to: SVG Repo, www.svgrepo.com, Generator: SVG Repo Mixer Tools -->
<svg fill="currentColor" height="800px" width="800px" version="1.1" id="Layer_1" xmlns="http://www.w3.org/2000/svg" xmlns:xlink="http://www.w3.org/1999/xlink"
	 viewBox="0 0 512 512" xml:space="preserve">
<g>
	<g>
		<path d="M436.347,250.605L512,201.834l-75.938-48.533c-0.014,0.014-0.027,0.029-0.042,0.043
			C424.266,80.902,361.539,25.6,285.922,25.6c-83.99,0-152.083,68.221-152.083,152.381c0,31.584,9.592,60.925,26.021,85.259
			c-2.37,0.294-4.8,0.48-7.365,0.48c-83.152,0-141.488-51.2-141.488-51.2S0,229.101,0,266.971C0,388.157,98.054,486.4,219.005,486.4
			c120.957,0,219.005-98.243,219.005-219.429c0-5.984-0.595-11.411-1.672-16.374C436.339,250.598,436.347,250.605,436.347,250.605z
			 M222.72,435.646c-3.144,0-5.795-0.022-9.011-0.022c-80.373-2.605-146.842-62.659-160.096-140.125
			c15.08,11.72,38.886,21.68,66.707,24.52c20.906,2.133,45.227-3.414,58.453-9.387c12.01-5.424,27.73-13.227,43.947-13.227
			c38.173,0,69.12,30.946,69.12,69.12C291.84,404.699,260.894,435.646,222.72,435.646z M320,184.418c-8.837,0-16-7.163-16-16
			s7.163-16,16-16s16,7.163,16,16S328.837,184.418,320,184.418z"/>
	</g>
</g>
</svg>
